<svg width="40" height="40" viewBox="0 0 40 40" fill="none" xmlns="http://www.w3.org/2000/svg">
<path d="M31.6667 36.6666H8.33333C6.49238 36.6666 5 35.1743 5 33.3333V9.99998C5 8.15903 6.49238 6.66665 8.33333 6.66665H11.6667V3.33331H15V6.66665H25V3.33331H28.3333V6.66665H31.6667C33.5076 6.66665 35 8.15903 35 9.99998V33.3333C35 35.1743 33.5076 36.6666 31.6667 36.6666ZM8.33333 16.6666V33.3333H31.6667V16.6666H8.33333ZM8.33333 9.99998V13.3333H31.6667V9.99998H8.33333ZM18.3333 30.69L12.155 24.5116L14.5117 22.155L18.3333 25.9766L25.4883 18.8216L27.845 21.1783L18.3333 30.6883V30.69Z" fill="#6F2DA8"/>
</svg>
