<svg width="40" height="40" viewBox="0 0 40 40" fill="none" xmlns="http://www.w3.org/2000/svg">
<path d="M24.1666 28.3333C17.2631 28.3333 11.6666 22.7369 11.6666 15.8333C11.6666 8.92975 17.2631 3.33331 24.1666 3.33331C31.0702 3.33331 36.6666 8.92975 36.6666 15.8333C36.6591 22.7337 31.067 28.3257 24.1666 28.3333ZM14.1666 16.0483C14.2258 21.5499 18.718 25.9702 24.2198 25.9408C29.7216 25.9111 34.1661 21.4427 34.1661 15.9408C34.1661 10.4389 29.7216 5.97053 24.2198 5.94081C18.718 5.91138 14.2258 10.3318 14.1666 15.8333V16.0483Z" fill="#5AD39A"/>
<path d="M15.8334 36.6667C8.92981 36.6667 3.33337 31.0702 3.33337 24.1667C3.33337 17.2631 8.92981 11.6667 15.8334 11.6667C22.7369 11.6667 28.3334 17.2631 28.3334 24.1667C28.3258 31.0671 22.7338 36.6591 15.8334 36.6667ZM5.83337 24.3817C5.89252 29.8832 10.3848 34.3036 15.8865 34.2742C21.3883 34.2445 25.8328 29.7761 25.8328 24.2742C25.8328 18.7723 21.3883 14.3039 15.8865 14.2742C10.3848 14.2448 5.89252 18.6651 5.83337 24.1667V24.3817Z" fill="#5AD39A"/>
</svg>
