<svg width="48" height="48" viewBox="0 0 48 48" fill="none" xmlns="http://www.w3.org/2000/svg">
<path d="M26 34H22V26H14V22H22V14H26V22H34V26H26V34Z" fill="#5AD39A"/>
<path d="M24 42C14.0589 42 6 33.9411 6 24C6 14.0589 14.0589 6 24 6C33.9411 6 42 14.0589 42 24C41.9891 33.9366 33.9366 41.9891 24 42ZM9.6 24.3096C9.68517 32.2318 16.154 38.5972 24.0766 38.5548C31.9991 38.512 38.3992 32.0775 38.3992 24.1548C38.3992 16.2321 31.9991 9.79759 24.0766 9.7548C16.154 9.71242 9.68517 16.0778 9.6 24V24.3096Z" fill="#5AD39A"/>
</svg>
