<svg width="167" height="35" viewBox="0 0 167 35" fill="none" xmlns="http://www.w3.org/2000/svg">
<path d="M0.19 17.228C0.19 22.09 3.318 25.66 8.078 25.66C10.492 25.66 12.566 24.674 13.62 23.11V25.898C13.62 28.686 11.784 30.488 8.928 30.488C6.378 30.488 4.712 29.196 4.44 27.02H0.292C0.802 31.508 4.1 34.262 8.928 34.262C14.368 34.262 17.734 30.76 17.734 25.15V9.204H13.892L13.654 11.516C12.668 9.714 10.696 8.66 8.18 8.66C3.386 8.66 0.19 12.332 0.19 17.228ZM4.372 17.126C4.372 14.372 6.14 12.298 8.894 12.298C11.784 12.298 13.518 14.27 13.518 17.126C13.518 20.05 11.75 22.056 8.894 22.056C6.174 22.056 4.372 19.948 4.372 17.126ZM33.9268 9.136C33.2468 8.966 32.6688 8.898 32.0908 8.898C29.8468 8.898 28.2488 10.02 27.5348 11.686L27.2968 9.238H23.3868V26H27.5348V17.84C27.5348 14.576 29.4048 12.978 32.3968 12.978H33.9268V9.136ZM42.4284 26.442C45.0464 26.442 47.3244 25.252 48.0384 23.518L48.3444 26H51.9824V15.8C51.9824 11.142 49.1944 8.694 44.6724 8.694C40.1164 8.694 37.1244 11.074 37.1244 14.712H40.6604C40.6604 12.944 42.0204 11.924 44.4684 11.924C46.5764 11.924 47.9364 12.842 47.9364 15.12V15.494L42.9044 15.868C38.9264 16.174 36.6824 18.112 36.6824 21.206C36.6824 24.368 38.8584 26.442 42.4284 26.442ZM43.7884 23.314C41.9184 23.314 40.8984 22.566 40.8984 21.036C40.8984 19.676 41.8844 18.826 44.4684 18.588L47.9704 18.316V19.2C47.9704 21.784 46.3384 23.314 43.7884 23.314ZM57.4173 33.786H61.5653V23.756C62.6193 25.456 64.7953 26.442 67.3113 26.442C72.3093 26.442 75.1653 22.634 75.1653 17.398C75.1653 12.128 72.0373 8.694 67.3113 8.694C64.7613 8.694 62.5513 9.816 61.5313 11.754L61.2593 9.204H57.4173V33.786ZM61.5993 17.602C61.5993 14.576 63.4693 12.468 66.3253 12.468C69.2493 12.468 70.9833 14.61 70.9833 17.602C70.9833 20.594 69.2493 22.702 66.3253 22.702C63.4693 22.702 61.5993 20.628 61.5993 17.602ZM87.3421 26.442C91.7281 26.442 94.7881 24.232 95.5021 20.56H91.6601C91.1841 22.158 89.6881 23.042 87.4101 23.042C84.6561 23.042 83.0921 21.546 82.7861 18.588L95.4341 18.554V17.296C95.4341 12.06 92.2381 8.694 87.2061 8.694C82.2761 8.694 78.8421 12.332 78.8421 17.602C78.8421 22.804 82.3441 26.442 87.3421 26.442ZM87.2401 12.094C89.7221 12.094 91.3201 13.624 91.3201 15.936H82.8881C83.2961 13.42 84.7921 12.094 87.2401 12.094Z" fill="#6F2DA8"/>
<path d="M104.874 26H108.954L115.958 9.204H111.674L108.614 16.922C107.9 18.758 107.288 20.526 107.05 21.58C106.846 20.662 106.268 18.928 105.554 16.922L102.63 9.204H98.2099L104.874 26ZM121.776 5.838C123.136 5.838 124.258 4.716 124.258 3.322C124.258 1.928 123.136 0.84 121.776 0.84C120.348 0.84 119.226 1.928 119.226 3.322C119.226 4.716 120.348 5.838 121.776 5.838ZM119.702 26H123.85V9.204H119.702V26ZM133.644 26V16.956C133.644 14.236 135.208 12.468 137.758 12.468C139.9 12.468 141.294 13.828 141.294 16.65V26H145.442V15.664C145.442 11.312 143.266 8.694 139.05 8.694C136.772 8.694 134.732 9.68 133.678 11.38L133.338 9.204H129.496V26H133.644ZM158.391 26.442C162.777 26.442 165.837 24.232 166.551 20.56H162.709C162.233 22.158 160.737 23.042 158.459 23.042C155.705 23.042 154.141 21.546 153.835 18.588L166.483 18.554V17.296C166.483 12.06 163.287 8.694 158.255 8.694C153.325 8.694 149.891 12.332 149.891 17.602C149.891 22.804 153.393 26.442 158.391 26.442ZM158.289 12.094C160.771 12.094 162.369 13.624 162.369 15.936H153.937C154.345 13.42 155.841 12.094 158.289 12.094Z" fill="#5AD39A"/>
</svg>
