<svg width="164" height="183" viewBox="0 0 164 183" fill="none" xmlns="http://www.w3.org/2000/svg">
<g filter="url(#filter0_d_559_628)">
<circle cx="104.56" cy="82.4213" r="22.5" transform="rotate(-177.732 104.56 82.4213)" stroke="#6F2DA8" stroke-width="16"/>
<circle cx="106.217" cy="34.6833" r="22.5" transform="rotate(-177.732 106.217 34.6833)" fill="#5AD39A" stroke="#6F2DA8" stroke-width="16"/>
<circle cx="57.6833" cy="99.8168" r="22.5" transform="rotate(-177.732 57.6833 99.8168)" stroke="#6F2DA8" stroke-width="16"/>
<circle cx="59.3409" cy="52.079" r="22.5" transform="rotate(-177.732 59.3409 52.079)" stroke="#6F2DA8" stroke-width="16"/>
</g>
<path d="M1.57937 165.228C1.57937 170.09 4.70737 173.66 9.46737 173.66C11.8814 173.66 13.9554 172.674 15.0094 171.11V173.898C15.0094 176.686 13.1734 178.488 10.3174 178.488C7.76737 178.488 6.10137 177.196 5.82937 175.02H1.68137C2.19137 179.508 5.48937 182.262 10.3174 182.262C15.7574 182.262 19.1234 178.76 19.1234 173.15V157.204H15.2814L15.0434 159.516C14.0574 157.714 12.0854 156.66 9.56937 156.66C4.77537 156.66 1.57937 160.332 1.57937 165.228ZM5.76137 165.126C5.76137 162.372 7.52937 160.298 10.2834 160.298C13.1734 160.298 14.9074 162.27 14.9074 165.126C14.9074 168.05 13.1394 170.056 10.2834 170.056C7.56337 170.056 5.76137 167.948 5.76137 165.126ZM34.6361 157.136C33.9561 156.966 33.3781 156.898 32.8001 156.898C30.5561 156.898 28.9581 158.02 28.2441 159.686L28.0061 157.238H24.0961V174H28.2441V165.84C28.2441 162.576 30.1141 160.978 33.1061 160.978H34.6361V157.136ZM42.4577 174.442C45.0757 174.442 47.3537 173.252 48.0677 171.518L48.3737 174H52.0117V163.8C52.0117 159.142 49.2237 156.694 44.7017 156.694C40.1457 156.694 37.1537 159.074 37.1537 162.712H40.6897C40.6897 160.944 42.0497 159.924 44.4977 159.924C46.6057 159.924 47.9657 160.842 47.9657 163.12V163.494L42.9337 163.868C38.9557 164.174 36.7117 166.112 36.7117 169.206C36.7117 172.368 38.8877 174.442 42.4577 174.442ZM43.8177 171.314C41.9477 171.314 40.9277 170.566 40.9277 169.036C40.9277 167.676 41.9137 166.826 44.4977 166.588L47.9997 166.316V167.2C47.9997 169.784 46.3677 171.314 43.8177 171.314ZM56.7667 181.786H60.9147V171.756C61.9687 173.456 64.1447 174.442 66.6607 174.442C71.6587 174.442 74.5147 170.634 74.5147 165.398C74.5147 160.128 71.3867 156.694 66.6607 156.694C64.1107 156.694 61.9007 157.816 60.8807 159.754L60.6087 157.204H56.7667V181.786ZM60.9487 165.602C60.9487 162.576 62.8187 160.468 65.6747 160.468C68.5987 160.468 70.3327 162.61 70.3327 165.602C70.3327 168.594 68.5987 170.702 65.6747 170.702C62.8187 170.702 60.9487 168.628 60.9487 165.602ZM86.0115 174.442C90.3975 174.442 93.4575 172.232 94.1715 168.56H90.3295C89.8535 170.158 88.3575 171.042 86.0795 171.042C83.3255 171.042 81.7615 169.546 81.4555 166.588L94.1035 166.554V165.296C94.1035 160.06 90.9075 156.694 85.8755 156.694C80.9455 156.694 77.5115 160.332 77.5115 165.602C77.5115 170.804 81.0135 174.442 86.0115 174.442ZM85.9095 160.094C88.3915 160.094 89.9895 161.624 89.9895 163.936H81.5575C81.9655 161.42 83.4615 160.094 85.9095 160.094Z" fill="#6F2DA8"/>
<path d="M102.863 174H106.943L113.947 157.204H109.663L106.603 164.922C105.889 166.758 105.277 168.526 105.039 169.58C104.835 168.662 104.257 166.928 103.543 164.922L100.619 157.204H96.1993L102.863 174ZM119.086 153.838C120.446 153.838 121.568 152.716 121.568 151.322C121.568 149.928 120.446 148.84 119.086 148.84C117.658 148.84 116.536 149.928 116.536 151.322C116.536 152.716 117.658 153.838 119.086 153.838ZM117.012 174H121.16V157.204H117.012V174ZM130.273 174V164.956C130.273 162.236 131.837 160.468 134.387 160.468C136.529 160.468 137.923 161.828 137.923 164.65V174H142.071V163.664C142.071 159.312 139.895 156.694 135.679 156.694C133.401 156.694 131.361 157.68 130.307 159.38L129.967 157.204H126.125V174H130.273ZM154.341 174.442C158.727 174.442 161.787 172.232 162.501 168.56H158.659C158.183 170.158 156.687 171.042 154.409 171.042C151.655 171.042 150.091 169.546 149.785 166.588L162.433 166.554V165.296C162.433 160.06 159.237 156.694 154.205 156.694C149.275 156.694 145.841 160.332 145.841 165.602C145.841 170.804 149.343 174.442 154.341 174.442ZM154.239 160.094C156.721 160.094 158.319 161.624 158.319 163.936H149.887C150.295 161.42 151.791 160.094 154.239 160.094Z" fill="#5AD39A"/>
<defs>
<filter id="filter0_d_559_628" x="18" y="-1" width="127.9" height="144.5" filterUnits="userSpaceOnUse" color-interpolation-filters="sRGB">
<feFlood flood-opacity="0" result="BackgroundImageFix"/>
<feColorMatrix in="SourceAlpha" type="matrix" values="0 0 0 0 0 0 0 0 0 0 0 0 0 0 0 0 0 0 127 0" result="hardAlpha"/>
<feOffset dy="4"/>
<feGaussianBlur stdDeviation="4"/>
<feComposite in2="hardAlpha" operator="out"/>
<feColorMatrix type="matrix" values="0 0 0 0 0.541176 0 0 0 0 0.584314 0 0 0 0 0.619608 0 0 0 0.1 0"/>
<feBlend mode="normal" in2="BackgroundImageFix" result="effect1_dropShadow_559_628"/>
<feBlend mode="normal" in="SourceGraphic" in2="effect1_dropShadow_559_628" result="shape"/>
</filter>
</defs>
</svg>
