<svg width="40" height="40" viewBox="0 0 40 40" fill="none" xmlns="http://www.w3.org/2000/svg">
<path d="M11.6666 13.3333C11.6666 8.73096 15.3976 5 20 5C24.6023 5 28.3333 8.73096 28.3333 13.3333C28.3333 17.9357 24.6023 21.6667 20 21.6667C15.3976 21.6667 11.6666 17.9357 11.6666 13.3333ZM20 18.3333C22.7614 18.3333 25 16.0948 25 13.3333C25 10.5719 22.7614 8.33333 20 8.33333C17.2385 8.33333 15 10.5719 15 13.3333C15 16.0948 17.2385 18.3333 20 18.3333Z" fill="#6F2DA8"/>
<path d="M10.5719 27.2386C8.07138 29.7391 6.66663 33.1304 6.66663 36.6667H9.99996C9.99996 34.0145 11.0535 31.471 12.9289 29.5956C14.8043 27.7202 17.3478 26.6667 20 26.6667C22.6521 26.6667 25.1957 27.7202 27.071 29.5956C28.9464 31.471 30 34.0145 30 36.6667H33.3333C33.3333 33.1304 31.9285 29.7391 29.428 27.2386C26.9276 24.7381 23.5362 23.3333 20 23.3333C16.4637 23.3333 13.0724 24.7381 10.5719 27.2386Z" fill="#6F2DA8"/>
</svg>
