<svg width="112" height="89" viewBox="0 0 112 89" fill="none" xmlns="http://www.w3.org/2000/svg">
<circle cx="56" cy="61" r="28" fill="#D35A5A" fill-opacity="0.3"/>
<circle cx="84" cy="61" r="28" fill="#5AD39A" fill-opacity="0.4"/>
<path d="M11.66 21H14.18L17.36 10.36L20.48 21H22.96L27.4 6.38H24.8L22.44 14.12C22.22 14.86 22.02 15.64 21.74 17C21.5 15.76 21.28 14.92 21.04 14.1L18.78 6.38H15.96L13.66 14.1C13.4 14.94 13.18 15.7 12.94 17C12.72 15.72 12.5 14.9 12.28 14.1L9.96 6.38H7.3L11.66 21ZM32.2031 21V15.6C32.2031 14.12 33.1031 13.04 34.6431 13.04C35.8831 13.04 36.7031 13.84 36.7031 15.5V21H39.1431V14.92C39.1431 12.36 37.8631 10.82 35.4231 10.82C34.0031 10.82 32.8431 11.44 32.2231 12.4V6.12H29.7631V21H32.2031ZM41.7605 16.04C41.7605 19.12 43.9805 21.24 47.0405 21.24C50.1005 21.24 52.3205 19.12 52.3205 16.04C52.3205 12.96 50.1005 10.84 47.0405 10.84C43.9805 10.84 41.7605 12.96 41.7605 16.04ZM44.2005 16.04C44.2005 14.24 45.3605 13.02 47.0405 13.02C48.7205 13.02 49.8805 14.24 49.8805 16.04C49.8805 17.84 48.7205 19.06 47.0405 19.06C45.3605 19.06 44.2005 17.84 44.2005 16.04ZM57.4319 8.06C57.4319 6.86 56.7519 6.1 55.8119 6.1C54.9319 6.1 54.3319 6.72 54.3319 7.6C54.3319 8.48 54.9119 8.98 55.6319 8.98C55.8519 8.98 56.0319 8.94 56.1919 8.88C56.1919 9.58 55.5719 10.12 54.7119 10.28V11.24C56.3119 11.04 57.4319 9.74 57.4319 8.06ZM58.9227 18C58.9227 19.94 60.4827 21.26 62.9427 21.26C65.3827 21.26 67.0827 20.02 67.0827 18.02C67.0827 16.5 66.2427 15.74 64.5827 15.36L62.8027 14.94C61.9627 14.74 61.5227 14.38 61.5227 13.82C61.5227 13.08 62.0827 12.64 63.0427 12.64C63.9827 12.64 64.5427 13.18 64.5627 14.02H66.8827C66.8627 12.1 65.3627 10.82 63.1427 10.82C60.8627 10.82 59.2227 11.98 59.2227 13.92C59.2227 15.5 60.0827 16.34 61.8627 16.74L63.6427 17.16C64.5227 17.36 64.7827 17.72 64.7827 18.22C64.7827 18.94 64.1627 19.4 63.0227 19.4C61.9027 19.4 61.2627 18.86 61.2427 18H58.9227ZM78.8511 6.38H76.2911V21H78.8511V6.38ZM84.9719 21V15.68C84.9719 14.08 85.8919 13.04 87.3919 13.04C88.6519 13.04 89.4719 13.84 89.4719 15.5V21H91.9119V14.92C91.9119 12.36 90.6319 10.82 88.1519 10.82C86.8119 10.82 85.6119 11.4 84.9919 12.4L84.7919 11.12H82.5319V21H84.9719ZM99.9892 17.26V16.8C99.9892 15.78 100.749 15.18 101.729 14.48C102.889 13.66 104.269 12.64 104.269 10.5C104.269 7.84 102.469 6.12 99.4892 6.12C96.5892 6.12 94.4892 8.14 94.4892 11H97.0292C97.0292 9.46 98.0092 8.4 99.4292 8.4C100.829 8.4 101.669 9.3 101.669 10.66C101.669 11.82 100.849 12.5 99.9492 13.22C98.8892 14.04 97.7692 14.98 97.7692 16.8V17.26H99.9892ZM98.9692 21.26C99.8492 21.26 100.589 20.52 100.589 19.68C100.589 18.8 99.8492 18.08 98.9692 18.08C98.0692 18.08 97.3492 18.8 97.3492 19.68C97.3492 20.54 98.0692 21.26 98.9692 21.26Z" fill="#5AD39A"/>
<circle cx="28" cy="61" r="28" fill="#6F2DA8" fill-opacity="0.3"/>
</svg>
